<svg width="106" height="32" viewBox="0 0 106 32" fill="none" xmlns="http://www.w3.org/2000/svg">
<g clip-path="url(#clip0_624_20994)">
<path d="M36.5664 29.6214H0V15.2754H5.39194V24.2355H31.1805V15.2754H36.5664V29.6214Z" fill="#7D5AFF"/>
<path d="M18.2606 19.5389L2.60938 5.10748L6.26296 1.14282L18.2606 12.2134L30.3071 1.14282L33.9546 5.10748L18.2606 19.5389Z" fill="#00CDFF"/>
<path d="M44.5 15.9465C44.7684 15.123 45.0063 14.2752 45.2075 13.403C45.4088 12.5369 45.5796 11.6463 45.726 10.7375H44.561V9.31023H49.9712V10.7375H47.2265C47.1716 11.1279 47.1167 11.5182 47.0557 11.9086C46.9947 12.299 46.9215 12.6832 46.8361 13.0797H49.8858V21.9423H45.4576V15.9465H44.5ZM46.8849 20.5638H48.483V14.4765H46.8849V20.5638ZM55.1436 22.5156C55.4913 22.1252 55.7901 21.6007 56.028 20.948C56.2659 20.2954 56.3818 19.5818 56.3818 18.7949V16.2209H50.9594L51.1911 11.1218H52.7709L52.5879 14.7632H55.4059L55.7474 10.2983H50.5751V8.82837H57.4248L57.0527 14.7632H57.9798V18.8559C57.9798 19.6001 57.9067 20.2893 57.7603 20.9236C57.6139 21.558 57.437 22.0886 57.2174 22.5095H55.1436V22.5156ZM55.6986 18.0691V19.5086H50.5873V18.0691H55.6986Z" fill="white"/>
<path d="M65.4319 20.9173V8.48047H67.2313V12.4451H73.5503V14.0432H67.2313V20.9234H74.0322V22.491H59.9668V20.9234H65.4319V20.9173Z" fill="white"/>
<path d="M77.0032 10.8168V8.47461H78.6134V10.8168H79.9004V12.2868H78.6134V15.4341L79.8821 15.0925V16.6601L78.6134 17.0017V18.7034C78.6134 19.4964 78.5585 20.21 78.4427 20.8444C78.3268 21.4787 78.156 22.0338 77.9181 22.5156H75.9968C76.1858 22.235 76.3383 21.9606 76.4603 21.68C76.5823 21.3994 76.686 21.1066 76.7714 20.8017C76.8568 20.4967 76.9117 20.1734 76.9483 19.8257C76.9849 19.4781 77.0032 19.106 77.0032 18.7034V17.4164L75.5332 17.7885V16.2209L77.0032 15.8489V12.2868H75.5942V10.8168H77.0032ZM79.5284 22.5156C79.6809 22.1557 79.815 21.7471 79.9248 21.2896C80.0346 20.8383 80.1261 20.3503 80.1993 19.844C80.2725 19.3317 80.3274 18.8071 80.364 18.2643C80.4006 17.7214 80.4189 17.1786 80.4189 16.6296V8.72469H89.2326V12.8784H81.9377V16.6418C81.9377 17.758 81.8828 18.8254 81.773 19.8501C81.6632 20.8749 81.4863 21.7593 81.2362 22.5156H79.5345H79.5284ZM81.9925 11.6097H87.6651V10.0117H81.9925V11.6097ZM83.9261 21.1859H85.2924V17.5323H82.7489V13.7995H84.0176V16.2636H85.2863V13.4884H86.6038V16.2636H87.8725V13.7995H89.1411V17.5323H86.6038V21.1859H88.0005V18.2765H89.318V22.5217H82.6269V18.2765H83.9261V21.1859Z" fill="white"/>
<path d="M102.304 12.2258C102.005 12.0428 101.676 11.8232 101.31 11.5853C100.95 11.3414 100.578 11.0852 100.194 10.8107C99.8093 10.5362 99.4372 10.2496 99.0651 9.95068C98.6931 9.6518 98.3393 9.35293 98.0099 9.05405C97.3573 9.664 96.6497 10.2496 95.8812 10.8046C95.1127 11.3597 94.3868 11.8354 93.7037 12.2319H90.8369C91.3249 11.9757 91.8311 11.6707 92.3618 11.3231C92.8924 10.9754 93.4048 10.6277 93.8867 10.2678C94.3746 9.91408 94.8077 9.57251 95.1981 9.25534C95.5884 8.93816 95.8812 8.66978 96.0886 8.4624H99.852C100.078 8.66978 100.395 8.93206 100.803 9.25534C101.212 9.57861 101.657 9.91408 102.151 10.2617C102.639 10.6155 103.146 10.9632 103.67 11.317C104.195 11.6707 104.683 11.9757 105.134 12.2319H102.298L102.304 12.2258ZM93.5207 21.0273C93.4475 20.8078 93.3621 20.5638 93.2645 20.2893C93.1669 20.0148 93.0632 19.7403 92.9595 19.4598C92.8558 19.1792 92.7522 18.9108 92.6485 18.6546C92.5448 18.3985 92.4533 18.1667 92.3679 17.9715H94.1977C94.277 18.1545 94.3746 18.3741 94.4783 18.6241C94.582 18.8742 94.6857 19.1304 94.7955 19.3988C94.9053 19.6672 95.009 19.9416 95.1127 20.2283C95.2163 20.515 95.3078 20.7773 95.3932 21.0273H97.0645V17.2945H91.9348V15.916H97.0645V14.2142H91.5628V12.7869H104.39V14.2142H98.9065V15.916H104.018V17.2945H98.9065V21.0273H100.627C100.742 20.8017 100.852 20.5516 100.968 20.2771C101.084 20.0026 101.188 19.7281 101.291 19.4476C101.395 19.167 101.493 18.8986 101.578 18.6424C101.663 18.3863 101.737 18.1606 101.785 17.9776H103.597C103.432 18.4961 103.249 19.0267 103.048 19.5818C102.847 20.1368 102.658 20.6187 102.481 21.0273H104.896V22.5156H91.0443V21.0273H93.5085H93.5207Z" fill="white"/>
</g>
<defs>
<clipPath id="clip0_624_20994">
<rect width="105.143" height="32" fill="white"/>
</clipPath>
</defs>
</svg>
