<svg width="106" height="32" fill="none" xmlns="http://www.w3.org/2000/svg"><g clip-path="url(#a)"><path d="M36.566 29.621H0V15.275h5.392v8.96H31.18v-8.96h5.386v14.346Z" fill="#7D5AFF"/><path d="M18.26 19.539 2.61 5.107l3.653-3.964 11.998 11.07 12.046-11.07 3.648 3.964L18.26 19.54Z" fill="#00CDFF"/><path d="M44.5 15.947c.268-.824.506-1.672.708-2.544.2-.866.372-1.757.518-2.665h-1.165V9.31h5.41v1.428h-2.744c-.055.39-.11.78-.171 1.17-.061.391-.134.775-.22 1.172h3.05v8.862h-4.428v-5.995H44.5Zm2.385 4.617h1.598v-6.088h-1.598v6.088Zm8.259 1.952c.347-.39.646-.915.884-1.568s.354-1.366.354-2.153V16.22h-5.423l.232-5.1h1.58l-.183 3.642h2.818l.341-4.465h-5.172v-1.47h6.85l-.372 5.935h.927v4.093c0 .744-.073 1.433-.22 2.068-.146.634-.323 1.165-.543 1.585h-2.073v.007Zm.555-4.447v1.44h-5.112v-1.44H55.7ZM65.432 20.917V8.48h1.8v3.965h6.318v1.598h-6.319v6.88h6.801v1.568H59.967v-1.568h5.465v-.006ZM77.003 10.817V8.475h1.61v2.342H79.9v1.47h-1.287v3.147l1.27-.341v1.567l-1.27.342v1.701c0 .793-.055 1.507-.17 2.141-.116.635-.287 1.19-.525 1.672h-1.921c.189-.281.341-.555.463-.836a5.902 5.902 0 0 0 .488-1.854c.037-.348.055-.72.055-1.123v-1.287l-1.47.372v-1.567l1.47-.372v-3.562h-1.409v-1.47h1.41Zm2.525 11.699c.153-.36.287-.769.397-1.226.11-.452.201-.94.274-1.446.073-.512.128-1.037.165-1.58a24.25 24.25 0 0 0 .055-1.634V8.725h8.814v4.153h-7.295v3.764c0 1.116-.055 2.183-.165 3.208-.11 1.025-.287 1.91-.537 2.666h-1.708Zm2.465-10.906h5.672v-1.598h-5.672v1.598Zm1.933 9.576h1.366v-3.654H82.75V13.8h1.269v2.464h1.268v-2.776h1.318v2.776h1.269V13.8h1.268v3.732h-2.537v3.654H88v-2.91h1.317v4.246h-6.691v-4.245h1.3v2.909ZM102.304 12.226c-.299-.183-.628-.403-.994-.64-.36-.245-.732-.5-1.116-.775a24.814 24.814 0 0 1-1.129-.86 23.168 23.168 0 0 1-1.055-.897c-.653.61-1.36 1.196-2.129 1.75a26.288 26.288 0 0 1-2.177 1.428h-2.867c.488-.256.994-.561 1.525-.909.53-.348 1.043-.695 1.525-1.055.488-.354.92-.695 1.311-1.013.39-.317.683-.585.89-.793h3.764c.226.208.543.47.951.793.409.324.854.66 1.348 1.007.488.354.995.701 1.519 1.055.525.354 1.013.659 1.464.915h-2.836l.006-.006Zm-8.783 8.801c-.073-.22-.159-.463-.257-.738-.097-.274-.2-.549-.304-.83a28.24 28.24 0 0 0-.311-.804c-.104-.257-.196-.488-.281-.684h1.83c.079.183.177.403.28.653.104.25.208.506.318.775.11.268.213.543.317.83.103.286.195.548.28.798h1.671v-3.733h-5.13v-1.378h5.13v-1.702h-5.501v-1.427h12.827v1.427h-5.484v1.702h5.112v1.378h-5.112v3.733h1.721c.115-.225.225-.475.341-.75.116-.274.22-.549.323-.83.104-.28.202-.548.287-.805a11.8 11.8 0 0 0 .207-.664h1.812c-.165.518-.348 1.049-.549 1.604-.201.555-.39 1.037-.567 1.445h2.415v1.489H91.044v-1.489h2.477Z" fill="#fff"/></g><defs><clipPath id="a"><path fill="#fff" d="M0 0h105.143v32H0z"/></clipPath></defs></svg>